<?xml version="1.0" encoding="UTF-8" standalone="no"?>
<svg
   xmlns:dc="http://purl.org/dc/elements/1.1/"
   xmlns:cc="http://creativecommons.org/ns#"
   xmlns:rdf="http://www.w3.org/1999/02/22-rdf-syntax-ns#"
   xmlns:svg="http://www.w3.org/2000/svg"
   xmlns="http://www.w3.org/2000/svg"
   xmlns:sodipodi="http://sodipodi.sourceforge.net/DTD/sodipodi-0.dtd"
   xmlns:inkscape="http://www.inkscape.org/namespaces/inkscape"
   width="200"
   height="270.00046"
   viewBox="0.526 0.358 11.955806 16.142031"
   version="1.1"
   id="svg4"
   sodipodi:docname="Punisher Logo.svg"
   inkscape:version="0.92.1 r15371">
  <metadata
     id="metadata10">
    <rdf:RDF>
      <cc:Work
         rdf:about="">
        <dc:format>image/svg+xml</dc:format>
        <dc:type
           rdf:resource="http://purl.org/dc/dcmitype/StillImage" />
        <dc:title></dc:title>
      </cc:Work>
    </rdf:RDF>
  </metadata>
  <defs
     id="defs8" />
  <sodipodi:namedview
     pagecolor="#ffffff"
     bordercolor="#666666"
     borderopacity="1"
     objecttolerance="10"
     gridtolerance="10"
     guidetolerance="10"
     inkscape:pageopacity="0"
     inkscape:pageshadow="2"
     inkscape:window-width="3840"
     inkscape:window-height="2019"
     id="namedview6"
     showgrid="false"
     inkscape:pagecheckerboard="true"
     inkscape:zoom="0.1888"
     inkscape:cx="146.68004"
     inkscape:cy="1184.503"
     inkscape:window-x="-14"
     inkscape:window-y="-14"
     inkscape:window-maximized="1"
     inkscape:current-layer="svg4"
     fit-margin-top="0"
     fit-margin-left="0"
     fit-margin-right="0"
     fit-margin-bottom="0" />
  <path
     d="m 5.5612738,12.218712 c -0.024304,-0.29948 -0.06377,-0.67877 -0.084632,-0.62736 -0.031723,0.0787 -0.036993,0.88212 -0.011184,2.3104 0.023121,1.28182 -0.0428,2.35802 -0.075814,2.39118 -0.1157103,0.11631 -0.4857468,-0.0535 -0.6051134,-0.27756 -0.069362,-0.13013 -0.1410891,-1.00924 -0.1685112,-2.06546 -0.028174,-1.08192 -0.1053867,-2.01697 -0.1877604,-2.27109 -0.085169,-0.26265 -0.1034511,-0.50046 -0.046994,-0.60673 0.051188,-0.0961 0.063125,-0.20476 0.026669,-0.24137 -0.036455,-0.0367 -0.062264,-0.2133 -0.05721,-0.39225 0.00796,-0.28091 -0.029142,-0.32562 -0.2699191,-0.32562 -0.2905663,0 -1.3195923,0.59842 -1.3195923,0.76733 0,0.0531 0.096784,0.0967 0.2150749,0.0967 0.1194742,0 0.215075,0.072 0.215075,0.16199 0,0.19516 -0.3521853,0.21287 -0.6400631,0.0323 -0.1639946,-0.10293 -0.26551,-0.0983 -0.489403,0.0219 -0.3303551,0.17766 -0.5746802,0.0716 -0.7701834,-0.33415 -0.1515203,-0.31427 -0.1727052,-0.45391 -0.1562519,-1.0256498 0.010539,-0.36396 0.061619,-0.46407 0.2909963,-0.56904 l 0.2781995,-0.12733 -0.3300325,-0.37756 c -0.47004632,-0.53773 -0.62694349,-0.88775 -0.77147386,-1.72128 -0.14173439,-0.81732 -0.0804381,-2.6886 0.10861285,-3.3164 0.15904792,-0.52789 1.42992591,-1.88424 2.28839741,-2.44215 1.0811818,-0.70263996 1.8559893,-0.91830996 3.3097884,-0.92143996 1.0818269,-0.002 1.3497028,0.036 2.1401032,0.30585 1.7109208,0.58415996 3.0639568,1.70160996 3.7022998,3.05763996 0.302825,0.64323 0.338313,0.82089 0.328742,1.6394 -0.0076,0.63104 -0.116678,1.35214 -0.348851,2.30662 -0.352939,1.45096 -0.39875,1.85735 -0.238089,2.11234 0.284653,0.4517498 -0.82137,1.6505298 -1.338733,1.4511598 -0.137649,-0.0529 -0.161844,-0.15119 -0.107968,-0.43933 0.08711,-0.46612 -0.07808,-0.67996 -0.5212339,-0.67488 -0.5847887,0.007 -0.8373943,0.22518 -0.8805168,0.76182 -0.021078,0.262 -0.1371103,0.76333 -0.2578749,1.11421 -0.1598007,0.46428 -0.219484,0.91129 -0.219484,1.64254 0,0.55252 -0.053984,1.36834 -0.1196892,1.81275 -0.1125917,0.76009 -0.1390459,0.81484 -0.4461729,0.9223 -0.1795876,0.063 -0.3434747,0.11437 -0.364337,0.11437 -0.020648,0 -0.037638,-1.0532 -0.037638,-2.34042 0,-2.01535 0.024412,-2.36764 0.1759313,-2.53569 0.1630268,-0.18089 0.1627042,-0.20023 -0.00473,-0.2647 -0.099257,-0.0383 -0.2115263,-0.0385 -0.2494869,-4.3e-4 -0.037961,0.0382 -0.081728,1.00406 -0.097214,2.14635 -0.033444,2.46224 -0.1026982,2.92664 -0.4442373,2.97556 l -0.2404538,0.0345 v -2.42585 c 0,-2.05682 -0.024627,-2.43546 -0.1613062,-2.48816 -0.1405514,-0.0541 -0.1613061,0.25789 -0.1613061,2.41839 v 2.48061 H 5.66494 c -0.00882,-1.42309 3.226e-4,-2.8465 -0.1036662,-4.26624 z M 7.3853244,9.7931822 c 0,-0.0936 -0.1331314,-0.36374 -0.2957281,-0.60036 l -0.295728,-0.43005 -0.033981,0.35477 c -0.018712,0.19516 0.053876,0.54529 0.1613062,0.77813 0.1722747,0.3733498 0.2110956,0.4023998 0.3297094,0.2454798 0.073986,-0.0976 0.1344219,-0.2543398 0.1344215,-0.3479698 z m -1.1601142,-0.19828 c 0.1056017,-0.2795 0.1921694,-0.62326 0.1921694,-0.76431 1.076e-4,-0.21545 -0.025487,-0.23489 -0.1611986,-0.12182 -0.088718,0.0741 -0.1613062,0.19494 -0.1613062,0.2687 0,0.0738 -0.103021,0.26568 -0.2288398,0.42638 -0.1946428,0.24861 -0.2101283,0.33349 -0.1034511,0.56861 0.1509826,0.3328498 0.2130318,0.2821898 0.4626263,-0.37756 z m -0.7287815,-1.31596 0.42316,-0.17884 -1.2296911,-0.65512 c -2.1085947,-1.12361 -3.0094361,-1.55355 -3.1162208,-1.48735 -0.3216446,0.19969 0.1702318,1.84536 0.6244701,2.08944 0.1949655,0.10476 1.3652958,0.38901 1.9610534,0.47627 0.3674554,0.0539 0.8327701,-0.0312 1.3372284,-0.2444 z m 4.5235643,0.04 c 0.354765,-0.0852 0.766204,-0.24386 0.914068,-0.35261 0.320676,-0.23598 0.631137,-0.9898 0.63931,-1.55247 0.0054,-0.37141 -0.01871,-0.40489 -0.289813,-0.40392 -0.361971,10e-4 -1.251521,0.4078 -1.93675,0.88494 -0.2803503,0.19526 -0.890948,0.55543 -1.3568004,0.80037 l -0.8469651,0.44528 0.470584,0.17128 c 0.8170697,0.29754 1.1928056,0.29862 2.4063665,0.007 z"
     id="path2"
     style="fill:#008000;fill-opacity:1;stroke-width:0.10776746"
     inkscape:connector-curvature="0" />
</svg>
