<?xml version="1.0" encoding="UTF-8"?>
<svg id="svg4" width="200" height="270" version="1.1" viewBox=".526 .358 11.956 16.142" xmlns="http://www.w3.org/2000/svg" xmlns:cc="http://creativecommons.org/ns#" xmlns:dc="http://purl.org/dc/elements/1.1/" xmlns:rdf="http://www.w3.org/1999/02/22-rdf-syntax-ns#">
 <metadata id="metadata10">
  <rdf:RDF>
   <cc:Work rdf:about="">
    <dc:format>image/svg+xml</dc:format>
    <dc:type rdf:resource="http://purl.org/dc/dcmitype/StillImage"/>
    <dc:title/>
   </cc:Work>
  </rdf:RDF>
 </metadata>
 <path id="path2" d="m5.5613 12.219c-0.024304-0.29948-0.06377-0.67877-0.084632-0.62736-0.031723 0.0787-0.036993 0.88212-0.011184 2.3104 0.023121 1.2818-0.0428 2.358-0.075814 2.3912-0.11571 0.11631-0.48575-0.0535-0.60511-0.27756-0.069362-0.13013-0.14109-1.0092-0.16851-2.0655-0.028174-1.0819-0.10539-2.017-0.18776-2.2711-0.085169-0.26265-0.10345-0.50046-0.046994-0.60673 0.051188-0.0961 0.063125-0.20476 0.026669-0.24137-0.036455-0.0367-0.062264-0.2133-0.05721-0.39225 0.00796-0.28091-0.029142-0.32562-0.26992-0.32562-0.29057 0-1.3196 0.59842-1.3196 0.76733 0 0.0531 0.096784 0.0967 0.21507 0.0967 0.11947 0 0.21508 0.072 0.21508 0.16199 0 0.19516-0.35219 0.21287-0.64006 0.0323-0.16399-0.10293-0.26551-0.0983-0.4894 0.0219-0.33036 0.17766-0.57468 0.0716-0.77018-0.33415-0.15152-0.31427-0.17271-0.45391-0.15625-1.0256 0.010539-0.36396 0.061619-0.46407 0.291-0.56904l0.2782-0.12733-0.33003-0.37756c-0.47005-0.53773-0.62694-0.88775-0.77147-1.7213-0.14173-0.81732-0.080438-2.6886 0.10861-3.3164 0.15905-0.52789 1.4299-1.8842 2.2884-2.4422 1.0812-0.70264 1.856-0.91831 3.3098-0.92144 1.0818-2e-3 1.3497 0.036 2.1401 0.30585 1.7109 0.58416 3.064 1.7016 3.7023 3.0576 0.30282 0.64323 0.33831 0.82089 0.32874 1.6394-0.0076 0.63104-0.11668 1.3521-0.34885 2.3066-0.35294 1.451-0.39875 1.8574-0.23809 2.1123 0.28465 0.45175-0.82137 1.6505-1.3387 1.4512-0.13765-0.0529-0.16184-0.15119-0.10797-0.43933 0.08711-0.46612-0.07808-0.67996-0.52123-0.67488-0.58479 7e-3 -0.83739 0.22518-0.88052 0.76182-0.021078 0.262-0.13711 0.76333-0.25787 1.1142-0.1598 0.46428-0.21948 0.91129-0.21948 1.6425 0 0.55252-0.053984 1.3683-0.11969 1.8128-0.11259 0.76009-0.13905 0.81484-0.44617 0.9223-0.17959 0.063-0.34347 0.11437-0.36434 0.11437-0.020648 0-0.037638-1.0532-0.037638-2.3404 0-2.0154 0.024412-2.3676 0.17593-2.5357 0.16303-0.18089 0.1627-0.20023-0.00473-0.2647-0.099257-0.0383-0.21153-0.0385-0.24949-4.3e-4 -0.037961 0.0382-0.081728 1.0041-0.097214 2.1464-0.033444 2.4622-0.1027 2.9266-0.44424 2.9756l-0.24045 0.0345v-2.4258c0-2.0568-0.024627-2.4355-0.16131-2.4882-0.14055-0.0541-0.16131 0.25789-0.16131 2.4184v2.4806h-0.75276c-0.00882-1.4231 3.226e-4 -2.8465-0.10367-4.2662zm1.8241-2.4255c0-0.0936-0.13313-0.36374-0.29573-0.60036l-0.29573-0.43005-0.033981 0.35477c-0.018712 0.19516 0.053876 0.54529 0.16131 0.77813 0.17227 0.37335 0.2111 0.4024 0.32971 0.24548 0.073986-0.0976 0.13442-0.25434 0.13442-0.34797zm-1.1601-0.19828c0.1056-0.2795 0.19217-0.62326 0.19217-0.76431 1.076e-4 -0.21545-0.025487-0.23489-0.1612-0.12182-0.088718 0.0741-0.16131 0.19494-0.16131 0.2687 0 0.0738-0.10302 0.26568-0.22884 0.42638-0.19464 0.24861-0.21013 0.33349-0.10345 0.56861 0.15098 0.33285 0.21303 0.28219 0.46263-0.37756zm-0.72878-1.316 0.42316-0.17884-1.2297-0.65512c-2.1086-1.1236-3.0094-1.5536-3.1162-1.4874-0.32164 0.19969 0.17023 1.8454 0.62447 2.0894 0.19497 0.10476 1.3653 0.38901 1.9611 0.47627 0.36746 0.0539 0.83277-0.0312 1.3372-0.2444zm4.5236 0.04c0.35476-0.0852 0.7662-0.24386 0.91407-0.35261 0.32068-0.23598 0.63114-0.9898 0.63931-1.5525 0.0054-0.37141-0.01871-0.40489-0.28981-0.40392-0.36197 1e-3 -1.2515 0.4078-1.9368 0.88494-0.28035 0.19526-0.89095 0.55543-1.3568 0.80037l-0.84697 0.44528 0.47058 0.17128c0.81707 0.29754 1.1928 0.29862 2.4064 7e-3z" fill="#008000" stroke-width=".10777"/>
</svg>
